<?xml version="1.0" encoding="utf-8"?>
<!-- Generator: Adobe Illustrator 25.1.0, SVG Export Plug-In . SVG Version: 6.00 Build 0)  -->
<svg version="1.1" id="Calque_1" xmlns="http://www.w3.org/2000/svg" xmlns:xlink="http://www.w3.org/1999/xlink" x="0px" y="0px"
	 viewBox="0 0 302.95 218.04" style="enable-background:new 0 0 302.95 218.04;" xml:space="preserve">
<style type="text/css">
	.st0{fill:#1E1E1C;}
	.st1{font-family:'Broadway';}
	.st2{font-size:23px;}
	.st3{fill:#FDC83D;}
	.st4{fill:#E08E20;}
	.st5{fill:url(#SVGID_1_);}
	.st6{fill:url(#SVGID_2_);}
	.st7{fill:url(#SVGID_3_);}
	.st8{fill:url(#SVGID_4_);}
	.st9{fill:url(#SVGID_5_);}
	.st10{filter:url(#Adobe_OpacityMaskFilter);}
	.st11{filter:url(#Adobe_OpacityMaskFilter_1_);}
	.st12{mask:url(#SVGID_6_);fill:url(#SVGID_7_);}
	.st13{fill:url(#SVGID_8_);}
	.st14{fill:#676767;}
	.st15{fill:#FFEF9D;}
	.st16{fill:#FBD7CB;}
	.st17{fill:#DDB47F;}
	.st18{fill:#020203;}
	.st19{fill:#808181;}
	.st20{fill:#F0F0F1;}
	.st21{fill:#E9C840;}
	.st22{fill:#CCCCCB;}
	.st23{filter:url(#Adobe_OpacityMaskFilter_2_);}
	.st24{filter:url(#Adobe_OpacityMaskFilter_3_);}
	.st25{mask:url(#SVGID_9_);fill:url(#SVGID_10_);}
	.st26{fill:url(#SVGID_11_);}
	.st27{fill:#91AAB4;}
	.st28{fill:#EFDED1;}
	.st29{fill:#E9E9E9;}
	.st30{fill:#303031;}
	.st31{fill:#D0B499;}
	.st32{fill:#57453F;}
	.st33{fill:#388E88;}
	.st34{fill:#4989A6;}
	.st35{filter:url(#Adobe_OpacityMaskFilter_4_);}
	.st36{filter:url(#Adobe_OpacityMaskFilter_5_);}
	.st37{mask:url(#SVGID_12_);fill:url(#SVGID_13_);}
	.st38{fill:url(#SVGID_14_);}
	.st39{fill:#FFFFFF;}
	.st40{fill:#A18775;}
	.st41{fill:#ADB38F;}
	.st42{fill:#EAEFEB;}
	.st43{opacity:0.19;fill:#FFFFFF;}
</style>
<text transform="matrix(1 0 0 1 0.531 202.4152)" class="st0 st1 st2">Les voisins de Beausoleil</text>
<g>
	<g>
		<path class="st3" d="M162.2,91.99c3.06-1.27,6.34-2.01,9.65-2.12c-2.21-1.21-2.15-1.2-1.66-3.63c0.2-1,0.62-1.2,1.55-1.19
			c3.87,0.05,7.74,0.02,11.6,0.02c-0.39-0.26-0.81-0.42-1.24-0.55c-3.4-1.09-6.79-2.18-10.19-3.28c-0.33-0.11-0.83-0.09-0.77-0.68
			c0.06-0.59,0.51-0.48,0.88-0.52c3.16-0.37,6.32-0.71,9.47-1.13c0.79-0.11,1.64,0,2.54-0.46c-3.75-0.71-7.32-1.38-10.9-2.05
			c-1.74-0.33-1.73-0.34-1.85-2.14c-0.02-0.32-0.05-0.64-0.11-0.95c-0.13-0.64,0.02-1.01,0.74-1.23c3.47-1.06,6.93-2.19,10.38-3.31
			c0.35-0.11,0.8-0.11,1.02-0.43c-3.94,0-7.87,0.01-11.79-0.01c-0.41,0-0.98,0.23-1.11-0.46c-0.12-0.63,0.45-0.64,0.79-0.8
			c3.2-1.49,6.42-2.96,9.62-4.46c0.29-0.14,0.7-0.15,0.85-0.64c-4.18,0.52-8.31,1.03-12.45,1.54c-0.69,2.9-0.99,5.9-2.11,8.69
			c-0.34,0.85-0.36,1.93-1.41,2.36C166.01,80.83,164.73,86.77,162.2,91.99z"/>
		<path class="st3" d="M108.09,137.03c-0.1,0.35-0.21,0.69-0.31,1.04c-0.74,2.48-1.48,4.96-2.25,7.54c0.43-0.22,0.46-0.53,0.57-0.78
			c0.88-2.02,1.75-4.04,2.63-6.05C108.5,138.2,108.28,137.62,108.09,137.03z"/>
		<path class="st3" d="M107.42,110.1c0.86-0.13,1.63,0.97,2.52,1.4c0.47,0.23,0.58,0.52,0.4,1.02c-0.32,0.86-0.59,1.74-0.87,2.61
			c-0.96,2.91-1.91,5.82-2.87,8.73c0.4-0.2,0.64-0.49,0.86-0.79c0.03-0.04,0.05-0.07,0.08-0.11c1.57-5.78,5.46-10.55,10.45-13.75
			c-10.39-4.13-18.72-13.16-21.33-24.77c-0.81-3.62-1.04-7.27-0.75-10.96c-1.12-0.35-1.02-1.48-1.27-2.26
			c-1.06-3.39-1.78-6.86-1.83-10.43c-3.97-0.8-7.94-1.6-11.92-2.4c0.18,0.32,0.41,0.47,0.65,0.6c2.68,1.49,5.37,2.98,8.05,4.48
			c2.37,1.33,2.35,1.33,1.67,3.91c-0.17,0.64-0.41,0.91-1.13,0.81c-2.27-0.33-4.55-0.59-6.83-0.87c-6.63-0.83-13.25-1.66-19.88-2.48
			c-2.23-0.28-4.47-0.53-6.7-0.8c0.06,0.2,0.14,0.26,0.23,0.28c7.11,1.71,14.22,3.41,21.33,5.11c3.71,0.89,7.42,1.78,11.12,2.68
			c0.38,0.09,0.93-0.01,0.93,0.63c0,0.69-0.57,0.49-0.94,0.54c-1.05,0.15-2.1,0.27-3.15,0.39c-2.91,0.35-5.82,0.7-8.72,1.06
			c3.42,0.8,6.84,1.47,10.27,2.1c2.4,0.44,2.4,0.4,2.5,2.76c0,0.11-0.01,0.22,0.02,0.32c0.25,0.91-0.23,1.2-1.02,1.44
			c-3.34,1.02-6.67,2.11-9.99,3.19c-0.36,0.12-0.81,0.13-1.09,0.51c4.02,0,7.98-0.01,11.94,0.01c0.35,0,0.83-0.21,0.98,0.35
			c0.16,0.62-0.39,0.67-0.74,0.83c-3.17,1.48-6.35,2.93-9.52,4.41c-0.46,0.21-0.98,0.33-1.37,0.77c3.44-0.43,6.84-0.85,10.24-1.27
			c0.84-0.1,1.81-0.51,2.48-0.22c0.7,0.3,0.63,1.49,1.06,2.21c0.49,0.81,0.24,1.23-0.54,1.69c-7.75,4.47-15.47,8.98-23.2,13.47
			c-1.69,0.98-3.37,1.96-5.14,2.99c0.55,0.19,0.88-0.07,1.23-0.23c5.79-2.54,11.59-5.07,17.36-7.65c3.83-1.71,7.74-3.27,11.5-5.13
			c0.35-0.17,0.94-0.64,1.3,0.01c0.33,0.59-0.31,0.79-0.61,1.07c-2.56,2.39-5.13,4.77-7.71,7.14c-0.18,0.17-0.41,0.28-0.72,0.49
			c0.67,0.23,0.97,0,1.28-0.15c2.53-1.18,5.06-2.37,7.58-3.57c2.67-1.27,2.65-1.26,4.52,0.98c0.39,0.47,0.42,0.76,0.05,1.26
			c-1.91,2.55-3.77,5.13-5.65,7.69c-0.44,0.61-0.88,1.22-1.39,1.93c0.53-0.04,0.73-0.31,0.98-0.49c2.91-2.13,5.82-4.26,8.74-6.38
			c0.28-0.21,0.56-0.6,1.01-0.21c0.45,0.4,0.07,0.72-0.1,1.02c-1.63,2.94-3.27,5.86-4.91,8.8c-0.27,0.48-0.52,0.96-0.85,1.56
			c0.61-0.15,0.82-0.5,1.09-0.75c2.07-1.93,4.11-3.89,6.18-5.82C105.97,111.24,106.63,110.22,107.42,110.1z"/>
		<path class="st3" d="M95.9,73.5c-1.12-0.35-1.02-1.48-1.27-2.26c-1.06-3.39-1.78-6.86-1.83-10.43c0.37,0.02,0.69-0.05,0.8-0.47
			c0.09-0.37-0.23-0.46-0.43-0.63c-0.26-0.23-0.53-0.44-0.79-0.65c0.21-1.16,0.24-2.34,0.25-3.51c0.14,0.03,0.28,0.05,0.41,0.09
			c2.83,0.79,2.81,0.78,4.25-1.87c0.31-0.57-0.05-0.77-0.32-1.06c-2.44-2.6-4.89-5.19-7.33-7.8c-0.23-0.25-0.55-0.44-0.67-1
			c1.97,1.1,3.83,2.13,5.69,3.17c1.54,0.86,3.07,1.73,4.62,2.58c0.31,0.17,0.64,0.57,1.03,0.15c0.41-0.45-0.01-0.79-0.24-1.11
			c-2.05-2.82-4.12-5.63-6.18-8.45c-0.2-0.28-0.49-0.52-0.51-0.9l0.06-0.07c2.14,1.36,4.12,2.92,6.1,4.5
			c1.12,0.89,2.35,1.62,3.51,2.46c0.35,0.25,0.62,0.28,0.91-0.05c0.02-0.03,0.05-0.04,0.08-0.07c2.4-1.85,2.39-1.85,1.09-4.57
			c-1.28-2.68-2.54-5.36-3.81-8.05c-0.12-0.25-0.29-0.49-0.24-0.8l-0.01,0.01c2.02,1.72,3.64,3.82,5.47,5.72
			c0.91,0.94,1.76,1.93,2.66,2.88c0.24,0.25,0.43,0.7,0.94,0.38c0.53-0.33,0.18-0.68,0.04-1c-1.86-4.38-3.73-8.76-5.6-13.15
			c-0.14-0.32-0.23-0.66-0.35-0.99c0.73-0.14,1.13-0.84,1.8-1.1c2.17,3.76,4.33,7.53,6.5,11.29c0.05,0.09,0.1,0.19,0.15,0.28
			c1.5,2.66,1.5,2.65,4.35,1.45c0.45-0.19,0.56-0.38,0.49-0.86c-0.53-4.02-1.03-8.05-1.54-12.1c0.27,0.07,0.32,0.31,0.41,0.5
			c1.62,3.57,3.25,7.13,4.85,10.71c0.12,0.28,0.21,0.43,0.5,0.36c0.27-0.07,0.58-0.12,0.59-0.5c0.01-0.28,0.01-0.57,0.01-0.85
			c0-3.89,0-7.78,0-11.88c0.17,0.43,0.29,0.69,0.38,0.95c1.14,3.53,2.29,7.05,3.38,10.6c0.24,0.79,0.6,0.99,1.36,0.82
			c0.48-0.11,0.99-0.16,1.47-0.1c1.02,0.14,1.29-0.38,1.44-1.28c0.68-3.82,1.42-7.63,2.3-11.44c0.29,2.38,0.57,4.77,0.86,7.15
			c0.19,1.61,0.38,3.23,0.59,4.84c0.05,0.34-0.12,0.83,0.49,0.89c0.65,0.06,0.61-0.49,0.73-0.85c1.12-3.49,2.23-7,3.34-10.49
			c0.08-0.26,0.19-0.52,0.34-0.95c0.29,0.73,0.07,1.31,0.07,1.87c0,3.43,0.02,6.86-0.03,10.29c-0.01,0.65,0.25,0.84,0.8,0.98
			c2.86,0.72,2.84,0.73,4.04-2.03c1.83-4.21,3.67-8.41,5.51-12.61c0.61,0.23,1.22,0.46,1.83,0.7c-1.14,3.89-2.28,7.78-3.42,11.68
			c-0.36,1.22-0.73,2.43-1.08,3.65c-0.09,0.33-0.26,0.7,0.2,0.91c0.47,0.22,0.62-0.17,0.82-0.44c2.05-2.83,4.08-5.67,6.13-8.51
			c0.31-0.43,0.62-0.85,1.1-1.19c-0.77,2.29-1.55,4.58-2.32,6.87c-0.54,1.63-1.04,3.28-1.59,4.9c-0.15,0.45,0.12,0.55,0.39,0.72
			c0.84,0.51,1.67,1.41,2.53,1.45c0.9,0.04,1.49-1.16,2.21-1.82c2.13-1.96,4.23-3.96,6.35-5.94c0.27-0.25,0.47-0.64,0.92-0.65
			l-0.01-0.01c-1.54,2.96-3.14,5.89-4.91,8.72c-0.37,0.59-0.63,1.24-0.94,1.87c-0.14,0.28-0.31,0.55,0,0.85
			c0.38,0.38,0.63,0.07,0.9-0.13c2.81-2.06,5.62-4.13,8.44-6.18c0.36-0.26,0.67-0.64,1.15-0.7l0.04,0.04
			c-0.4,0.91-1.08,1.64-1.66,2.42c-1.79,2.44-3.59,4.87-5.43,7.27c-0.31,0.4-0.34,0.59,0.01,0.94c0.64,0.64,1.24,1.31,1.82,2.01
			c0.27,0.33,0.51,0.26,0.82,0.11c0.83-0.38,1.67-0.74,2.51-1.1c0.28,1.04,0.38,2.13,0.99,3.07c-0.35,0.35-0.71,0.69-1.03,1.06
			c-0.25,0.28-0.84,0.45-0.45,1c0.38,0.53,0.78,0.08,1.12-0.06c1.43-0.59,2.85-1.23,4.27-1.85c0.51,1.14,0.54,2.36,0.62,3.57
			c-1.08,0.64-2.14,1.31-3.23,1.92c-0.51,0.29-0.72,0.54-0.43,1.14c0.42,0.87,0.75,1.79,1.12,2.69c-0.69,2.9-0.99,5.9-2.11,8.69
			c-0.34,0.85-0.36,1.93-1.41,2.36c-0.11-1.05-0.19-2.11-0.35-3.16c-2.69-17.94-18.82-30.88-36.97-29.59
			c-10.67,0.76-19.22,5.54-25.68,14.01C98.72,61.04,96.58,67,95.9,73.5z"/>
		<path class="st3" d="M171.77,57.75c-0.08-1.21-0.11-2.43-0.62-3.57c3.79-1.72,7.57-3.45,11.37-5.17
			c5.54-2.5,11.08-4.98,16.62-7.46c0.31-0.14,0.59-0.41,0.99-0.29c-0.08,0.38-0.43,0.44-0.68,0.58c-5.93,3.43-11.86,6.86-17.8,10.28
			C178.36,54.01,175.06,55.87,171.77,57.75z"/>
		<path class="st3" d="M106.05,25.47c-0.66,0.26-1.06,0.95-1.8,1.1c-0.69-1.54-1.39-3.08-2.05-4.63c-1.49-3.47-2.97-6.95-4.44-10.43
			c-0.1-0.24-0.33-0.48-0.12-0.97C100.48,15.58,103.27,20.52,106.05,25.47z"/>
		<path class="st3" d="M151.27,23.21c-0.61-0.23-1.22-0.47-1.83-0.7c1.41-3.31,2.82-6.62,4.23-9.92c0.51-1.19,1.03-2.38,1.55-3.56
			c0.11,0.04,0.21,0.07,0.32,0.11C154.12,13.82,152.69,18.51,151.27,23.21z"/>
		<path class="st3" d="M92.62,55.54c-0.01,1.18-0.04,2.35-0.25,3.51c-3.02-2.14-6.04-4.27-9.05-6.41
			C86.55,53.29,89.51,54.66,92.62,55.54z"/>
		<path class="st3" d="M167.24,54.03c-0.61-0.93-0.71-2.03-0.99-3.07c2.78-1.35,5.57-2.69,8.35-4.04c0.06,0.08,0.11,0.16,0.17,0.24
			C172.27,49.45,169.75,51.74,167.24,54.03z"/>
		<path class="st3" d="M101.1,32.71c-0.03-0.03-0.07-0.07-0.1-0.1c0.02,0.01,0.05,0.01,0.06,0.02c0.02,0.03,0.02,0.06,0.02,0.09
			C101.08,32.72,101.1,32.71,101.1,32.71z"/>
		<path class="st3" d="M163.51,34.85c0.01-0.03,0.02-0.06,0.03-0.08c-0.01,0.02-0.02,0.05-0.04,0.07
			C163.5,34.83,163.51,34.85,163.51,34.85z"/>
		<path class="st3" d="M93.39,39.35c-0.09-0.05-0.19-0.09-0.06-0.2c0,0,0.08,0.08,0.12,0.13C93.46,39.28,93.39,39.35,93.39,39.35z"
			/>
		<path class="st3" d="M168.15,39.27c0.04-0.05,0.07-0.09,0.11-0.14c0.14,0.13,0.02,0.14-0.07,0.18
			C168.18,39.3,168.15,39.27,168.15,39.27z"/>
		<path class="st3" d="M165.7,74.56c-0.11-1.05-0.19-2.11-0.35-3.16c-2.69-17.94-18.82-30.88-36.97-29.59
			c-10.67,0.76-19.22,5.54-25.68,14.01C98.72,61.04,96.58,67,95.9,73.5c-0.29,3.69-0.06,7.34,0.75,10.96
			c2.61,11.61,10.93,20.64,21.33,24.77c0.47-0.3,0.94-0.58,1.43-0.85c-13.26-4.73-22.65-17.45-22.29-32.44
			c0.46-19.23,15.78-31.41,29.86-32.67c11.11-1,20.63,2.28,28.32,10.38c6.33,6.67,9.3,14.73,9.11,23.94
			c-0.11,5.5-1.59,10.71-4.11,15.29c0.63-0.32,1.26-0.61,1.91-0.88C164.73,86.77,166.01,80.83,165.7,74.56z"/>
		<path class="st3" d="M155.29,53.65c-7.69-8.1-17.21-11.38-28.32-10.38c-14.07,1.26-29.39,13.44-29.86,32.67
			c-0.36,14.99,9.03,27.71,22.29,32.44c2.38-1.33,4.96-2.33,7.63-2.92c4.97-4.67,11.85-7.45,18.75-7.45c2.29,0,4.48,0.36,6.52,1
			c2.22-2.52,4.96-4.59,8-6.13c2.52-4.58,3.99-9.79,4.11-15.29C164.59,68.38,161.62,60.32,155.29,53.65z M131.63,86.34
			c-10.16,0.07-18.87-8.19-18.45-19.34c0.35-9.19,8.13-17.71,18.38-17.52c10.25-0.22,18.66,8.15,18.52,18.56
			C149.94,78.54,141.9,86.27,131.63,86.34z"/>
		<path class="st3" d="M131.56,49.48c10.25-0.22,18.66,8.15,18.52,18.56c-0.14,10.49-8.18,18.23-18.45,18.3
			c-10.16,0.07-18.87-8.19-18.45-19.34C113.53,57.82,121.31,49.3,131.56,49.48z"/>
	</g>
	<path class="st4" d="M164.73,108.02l-45.11,19.94v41.73h90.22v-41.73L164.73,108.02z M179.26,153.38H150.2V136.2l14.53-6.42
		l14.53,6.42V153.38z"/>
	<polygon points="107.93,169.69 107.93,121.82 164.73,96.71 221.53,121.82 221.53,169.69 230.69,169.69 230.69,115.86 164.73,86.7 
		98.77,115.86 98.77,169.69 	"/>
	<polygon class="st0" points="220.48,81.34 220.48,105.64 186.9,90.79 186.9,81.34 	"/>
	<rect x="183.12" y="70.22" class="st0" width="42.13" height="8.19"/>
	<linearGradient id="SVGID_1_" gradientUnits="userSpaceOnUse" x1="13.6535" y1="164.2075" x2="259.973" y2="164.2075">
		<stop  offset="0" style="stop-color:#32B5E5"/>
		<stop  offset="0.2933" style="stop-color:#98C669"/>
		<stop  offset="0.5726" style="stop-color:#ED7D41"/>
		<stop  offset="1" style="stop-color:#E22E1D"/>
	</linearGradient>
	<path class="st5" d="M13.65,165.97c11.39-2.13,24.91-2.4,39.05-1.81c20.68,0.85,39.03,3.04,58.51,4.59
		c43.27,3.43,87.74-0.3,107.9-8.98c6.3-2.71,25.06-7.64,34.43-6.53c11.6,1.37,5.61,10.61-3.21,12.74
		c-18.94,4.57-43.4,7.21-70.6,8.93c-16.64,0.65-33.2,0.62-49.65-0.26c-12.63-1.05-24.87-2.27-36.4-3.78
		c-12.63-1.66-25.03-3.4-38.77-4.66c-11.15-1.02-22.48-1.32-34.25-0.46C18.47,165.9,16,165.89,13.65,165.97z"/>
	<linearGradient id="SVGID_2_" gradientUnits="userSpaceOnUse" x1="50.214" y1="168.3" x2="165.3816" y2="168.3">
		<stop  offset="0" style="stop-color:#32B5E5"/>
		<stop  offset="0.2933" style="stop-color:#98C669"/>
		<stop  offset="0.5726" style="stop-color:#ED7D41"/>
		<stop  offset="1" style="stop-color:#E22E1D"/>
	</linearGradient>
	<path class="st6" d="M59.08,162.36c2.14-0.1,4.4-0.1,6.41-0.33c10.74-1.23,21.08-0.81,31.27,0.66c12.54,1.8,23.87,4.29,35.4,6.67
		c10.52,2.17,21.7,3.9,33.23,5.41c-4.71,0.93-8.78,0.58-12.37-0.67c-7.22-0.76-14.06-1.77-20.74-2.95
		c-14.8-2.62-29.08-5.58-44.66-7.72c-8.25-1.13-16.52-1.43-24.73,0c-1.29,0.22-3.94,0.28-2.85,1.06c0.63,0.45,2.64,0.25,4.08,0.26
		c-2.82,1.44-10.54-0.06-11.51,2.44C48.37,164.96,49.33,164.35,59.08,162.36z"/>
	<linearGradient id="SVGID_3_" gradientUnits="userSpaceOnUse" x1="59.7572" y1="168.3798" x2="153.0072" y2="168.3798">
		<stop  offset="0" style="stop-color:#32B5E5"/>
		<stop  offset="0.2933" style="stop-color:#98C669"/>
		<stop  offset="0.5726" style="stop-color:#ED7D41"/>
		<stop  offset="1" style="stop-color:#E22E1D"/>
	</linearGradient>
	<path class="st7" d="M64.09,164.74c-1.43-0.01-3.45,0.2-4.08-0.26c-1.09-0.78,1.57-0.84,2.85-1.06c8.22-1.42,16.49-1.13,24.73,0
		c15.59,2.14,29.86,5.09,44.66,7.72c6.68,1.18,13.53,2.2,20.74,2.95c-0.77,0.07-1.55,0.14-2.32,0.2c-0.49-0.01-0.99-0.02-1.48-0.02
		c-19.84-1.54-37.82-4.45-55.38-7.77C84.81,164.81,75.07,163.4,64.09,164.74z"/>
	<linearGradient id="SVGID_4_" gradientUnits="userSpaceOnUse" x1="187.9741" y1="168.3" x2="273.4041" y2="168.3">
		<stop  offset="0" style="stop-color:#32B5E5"/>
		<stop  offset="0.2933" style="stop-color:#98C669"/>
		<stop  offset="0.5726" style="stop-color:#ED7D41"/>
		<stop  offset="1" style="stop-color:#E22E1D"/>
	</linearGradient>
	<path class="st8" d="M273.4,156.49c-10.49,7.93-23.93,15.06-48.5,19.23c-6.25,1.06-12.62,2.03-19.34,2.69
		c-2.68,0.26-2.26,0.55-1.27,1.09c-5.49,0.76-10.94,0.92-16.32-0.1c24.83-2.46,47.17-6.23,64.46-12.77
		c8.05-3.05,13.66-6.53,18.6-10.15C271.83,156.48,272.61,156.49,273.4,156.49z"/>
	<linearGradient id="SVGID_5_" gradientUnits="userSpaceOnUse" x1="149.2086" y1="174.4073" x2="150.6905" y2="174.4073">
		<stop  offset="0" style="stop-color:#32B5E5"/>
		<stop  offset="0.2933" style="stop-color:#98C669"/>
		<stop  offset="0.5726" style="stop-color:#ED7D41"/>
		<stop  offset="1" style="stop-color:#E22E1D"/>
	</linearGradient>
	<path class="st9" d="M149.21,174.27c0.49,0.01,0.99,0.02,1.48,0.02C150.14,174.64,149.65,174.61,149.21,174.27z"/>
	<g>
		<g>
			<defs>
				<filter id="Adobe_OpacityMaskFilter" filterUnits="userSpaceOnUse" x="61.81" y="160.18" width="13.01" height="1.91">
					<feFlood  style="flood-color:white;flood-opacity:1" result="back"/>
					<feBlend  in="SourceGraphic" in2="back" mode="normal"/>
				</filter>
			</defs>
			<mask maskUnits="userSpaceOnUse" x="61.81" y="160.18" width="13.01" height="1.91" id="SVGID_6_">
				<g class="st10">
					<defs>
						<filter id="Adobe_OpacityMaskFilter_1_" filterUnits="userSpaceOnUse" x="61.81" y="160.18" width="13.01" height="1.91">
							<feFlood  style="flood-color:white;flood-opacity:1" result="back"/>
							<feBlend  in="SourceGraphic" in2="back" mode="normal"/>
						</filter>
					</defs>
					<mask maskUnits="userSpaceOnUse" x="61.81" y="160.18" width="13.01" height="1.91" id="SVGID_6_">
						<g class="st11">
						</g>
					</mask>
					<linearGradient id="SVGID_7_" gradientUnits="userSpaceOnUse" x1="61.8069" y1="161.1348" x2="74.814" y2="161.1348">
						<stop  offset="0" style="stop-color:#4D4D4D"/>
						<stop  offset="1" style="stop-color:#000000"/>
					</linearGradient>
					<path class="st12" d="M68.12,162.06c1.23-0.02,2.45-0.04,3.68-0.15c0.61-0.06,1.22-0.14,1.81-0.31
						c0.46-0.14,0.94-0.37,1.16-0.8c0.03-0.06,0.05-0.13,0.04-0.2c-0.01-0.07-0.05-0.12-0.1-0.17c-0.25-0.24-0.63-0.25-0.98-0.25
						c-3.38,0.05-6.77,0.11-10.14,0.39c-0.61,0.05-1.29,0.15-1.64,0.65c-0.76,1.09,1.87,0.85,2.34,0.86
						C65.56,162.1,66.84,162.08,68.12,162.06z"/>
				</g>
			</mask>
			<linearGradient id="SVGID_8_" gradientUnits="userSpaceOnUse" x1="61.8069" y1="161.1348" x2="74.814" y2="161.1348">
				<stop  offset="0" style="stop-color:#020203"/>
				<stop  offset="1" style="stop-color:#020203"/>
			</linearGradient>
			<path class="st13" d="M68.12,162.06c1.23-0.02,2.45-0.04,3.68-0.15c0.61-0.06,1.22-0.14,1.81-0.31c0.46-0.14,0.94-0.37,1.16-0.8
				c0.03-0.06,0.05-0.13,0.04-0.2c-0.01-0.07-0.05-0.12-0.1-0.17c-0.25-0.24-0.63-0.25-0.98-0.25c-3.38,0.05-6.77,0.11-10.14,0.39
				c-0.61,0.05-1.29,0.15-1.64,0.65c-0.76,1.09,1.87,0.85,2.34,0.86C65.56,162.1,66.84,162.08,68.12,162.06z"/>
			<g>
				<path class="st14" d="M59.5,146c0.91,4.49,3.51,8.5,4.42,12.99c0.06,0.29,0.11,0.6,0.28,0.85c0.16,0.25,0.47,0.43,0.76,0.35
					c0.52-0.14,0.52-0.87,0.45-1.4c-0.21-1.59-0.03-3.21,0.16-4.81c0.29-2.49,0.58-4.98,0.87-7.47c0.22-0.22,0.61-0.17,0.85,0.03
					c0.24,0.2,0.35,0.51,0.45,0.81c0.42,1.33,0.6,2.71,0.78,4.09c0.35,2.76,0.71,5.53,0.75,8.31c0.25,0.02,0.5,0.03,0.76,0.05
					c1.03-2.76,1.81-5.6,2.54-8.45c0.37-1.44,0.73-2.89,0.96-4.36c0.31-1.93,0.39-3.9,0.45-5.85c0.01-0.4,0.02-0.82-0.21-1.15
					c-0.2-0.29-0.55-0.44-0.88-0.57c-2.85-1.09-5.92-1.5-8.97-1.74c-0.86-0.07-1.72-0.12-2.57,0.03c-0.67,0.12-1.39,0.38-1.89,0.86
					c-0.57,0.54-0.38,1.4-0.38,2.15C59.05,142.5,59.15,144.27,59.5,146z"/>
				<path class="st15" d="M57.69,136.04c-0.28,0.86-0.5,1.87,0.02,2.6c0.25,0.35,0.62,0.57,1,0.76c2.13,1.08,4.58,1.33,6.95,1.56
					c2.14,0.21,4.3,0.42,6.45,0.3c1.02-0.05,2.1-0.21,2.9-0.85c0.76-0.61,1.15-1.59,1.26-2.56c0.11-0.97-0.04-1.95-0.19-2.91
					c-0.16-1.06-0.32-2.12-0.6-3.15c-0.48-1.8-1.32-3.49-2.45-4.97c-0.85-1.12-1.89-2.12-3.16-2.72c-1.2-0.57-3.03-0.83-4.28-0.22
					c-1.25,0.61-2.4,2.35-3.24,3.43C60.32,129.93,58.73,132.89,57.69,136.04z"/>
				<path class="st16" d="M69.62,120.99c-0.01,0.23-0.02,0.46-0.09,0.68c-0.16,0.53-0.64,1-1.28,1.25
					c-0.65,0.25-1.45,0.28-2.12,0.06c-0.66-0.22-1.15-0.64-1.54-1.09c-0.81-0.94-1.29-2.06-1.17-3.17c0.02-0.16,0.05-0.34,0.19-0.47
					c0.2-0.19,0.56-0.23,0.88-0.26c1.05-0.1,3.98-0.76,4.84-0.25C70.18,118.25,69.66,120.29,69.62,120.99z"/>
				<path class="st17" d="M61.1,117.8c0.15,0.65,0.99,1.15,1.88,1.26c0.89,0.11,1.81-0.1,2.58-0.44c0.83-0.37,1.6-0.9,2.57-0.93
					c0.18-0.01,0.36,0.01,0.52,0.07c0.17,0.07,0.29,0.19,0.39,0.32c0.55,0.68,0.63,1.51,0.7,2.3c0.3-0.69,0.53-1.39,0.7-2.1
					c0.18-0.78,0.24-1.68-0.54-2.23c-0.59-0.42-1.49-0.49-2.3-0.41c-1.14,0.1-2.24,0.45-3.12,0.99c-0.35,0.21-0.67,0.46-1.05,0.64
					c-0.38,0.19-0.84,0.31-1.29,0.25c-0.5-0.07-0.59-0.37-0.94-0.54C61.06,117.22,61.03,117.54,61.1,117.8z"/>
				<path class="st16" d="M71.38,128.93c-0.31-0.58-0.78-1.06-1.17-1.58s-0.72-1.15-0.69-1.81c0.03-0.66,0.55-1.32,1.21-1.32
					c0.27,0,0.53,0.11,0.77,0.23c0.79,0.4,1.51,0.94,2.1,1.6c0.23,0.26,0.45,0.53,0.59,0.84c0.22,0.46,0.28,0.97,0.33,1.48
					c0.09,0.89,0.17,1.79-0.02,2.66c-0.28,1.24-1.17,2.35-2.34,2.85c-0.25,0.11-0.64,0.29-0.88,0.16c-0.26-0.14-0.3-0.48-0.25-0.73
					c0.15-0.69,0.62-1.27,0.72-2C71.88,130.5,71.77,129.65,71.38,128.93z"/>
				<path class="st16" d="M70.01,133.79c-0.05,0.04-0.1,0.07-0.14,0.12c-0.09,0.12-0.1,0.28-0.1,0.44c0,0.24,0.02,0.53,0.23,0.65
					c0.1,0.06,0.21,0.06,0.32,0.07c0.11,0.01,0.23,0.01,0.34,0.02c0.12,0.01,0.26,0.01,0.36-0.06c0.11-0.07,0.15-0.2,0.2-0.32
					c0.1-0.29,0.2-0.59,0.31-0.88c0.02-0.05,0.03-0.11,0.01-0.15c-0.01-0.03-0.04-0.05-0.07-0.07c-0.24-0.19-0.36-0.28-0.67-0.21
					C70.54,133.45,70.2,133.6,70.01,133.79z"/>
				<path class="st18" d="M72.31,160.01c-0.15-0.14-0.38-0.16-0.59-0.18c-0.31-0.02-0.62-0.05-0.92-0.07
					c-0.13-0.01-0.27-0.02-0.38-0.1c-0.04-0.03-0.08-0.07-0.11-0.12c-0.1,0-0.19,0-0.29-0.01c-0.36-0.01-0.71,0.12-1.05,0.23
					c0.07,0.3,0.14,0.6,0.21,0.9c0.01,0.06,0.03,0.12,0.08,0.16c0.05,0.04,0.12,0.04,0.18,0.04c1.03,0.03,2.05-0.01,3.07-0.11
					C72.52,160.5,72.51,160.19,72.31,160.01z"/>
				<path class="st18" d="M65.24,159.74c0.02,0.41,0.03,0.83-0.16,1.19c-0.13,0.25-0.35,0.45-0.57,0.64c-0.11,0.1-0.23,0.2-0.34,0.3
					c-0.03,0.03-0.06,0.06-0.1,0.07c-0.04,0.01-0.09,0.01-0.13,0.01c-0.19-0.01-0.39,0.01-0.58-0.01c-0.19-0.02-0.39-0.07-0.53-0.21
					c-0.13-0.14-0.18-0.38-0.06-0.53c0.08-0.1,0.2-0.15,0.32-0.2c0.34-0.15,0.63-0.41,0.83-0.72c0.13-0.19,0.24-0.4,0.47-0.48
					C64.45,159.77,65.24,159.68,65.24,159.74z"/>
				<g>
					<g id="XMLID_3296_">
						<path id="XMLID_3299_" class="st19" d="M72.13,132.94c-0.05-0.1-0.1-0.2-0.18-0.26c-0.11-0.08-0.25-0.09-0.38-0.1
							c-2.38-0.08-4.76-0.16-7.14-0.24c-0.19-0.01-0.37,0.11-0.45,0.3c-0.39,0.9-0.84,1.66-1.13,2.61
							c-0.04,0.13,0.05,0.26,0.18,0.26c3.21,0.04,6.59,0.39,9.79,0.12c0.22-0.02,0.35-0.26,0.26-0.48
							C72.76,134.44,72.45,133.59,72.13,132.94z"/>
						<path id="XMLID_3298_" class="st14" d="M72.07,132.73c-0.05-0.1-0.1-0.2-0.18-0.26c-0.11-0.08-0.25-0.09-0.38-0.1
							c-2.33-0.08-4.67-0.16-7-0.24c-0.19-0.01-0.36,0.11-0.44,0.3c-0.38,0.9-0.83,1.66-1.11,2.61c-0.04,0.13,0.05,0.26,0.18,0.26
							c3.15,0.04,6.46,0.39,9.61,0.12c0.21-0.02,0.34-0.26,0.25-0.48C72.69,134.23,72.38,133.38,72.07,132.73z"/>
						<path id="XMLID_3297_" class="st20" d="M71.7,132.92c-0.04-0.07-0.09-0.14-0.16-0.19c-0.1-0.06-0.22-0.07-0.34-0.07
							c-2.1-0.06-4.21-0.11-6.31-0.17c-0.17,0-0.33,0.08-0.4,0.22c-0.34,0.65-0.74,1.19-1,1.87c-0.03,0.09,0.05,0.19,0.16,0.19
							c2.84,0.03,5.83,0.28,8.66,0.09c0.19-0.01,0.31-0.19,0.23-0.34C72.26,134,71.98,133.39,71.7,132.92z"/>
					</g>
					<path id="XMLID_3295_" class="st21" d="M68.93,133.11c-0.01,0.02-0.01,0.04-0.01,0.06c0.09,0.49,0.17,0.99,0.36,1.45
						c0.56,0,1.13,0,1.69,0c0.18,0,0.36,0,0.53-0.04c-0.19-0.49-0.38-0.97-0.57-1.46c-0.64,0.02-1.29,0-1.93-0.04
						C68.98,133.09,68.94,133.09,68.93,133.11z"/>
					<path id="XMLID_3294_" class="st22" d="M68.22,133.06c-1.04,0.06-2.07,0.04-3.1,0c-0.08,0-0.08,0.12,0,0.13
						c1.03,0.08,2.07,0.06,3.1,0.01C68.31,133.2,68.31,133.06,68.22,133.06z"/>
					<path id="XMLID_3293_" class="st22" d="M68.33,133.46c-1.01-0.01-2.03,0.03-3.04,0.08c-0.08,0-0.08,0.12,0,0.12
						c1.01-0.05,2.03-0.06,3.04-0.06C68.42,133.6,68.42,133.46,68.33,133.46z"/>
					<path id="XMLID_3292_" class="st22" d="M68.33,133.96c-1.07-0.05-2.14-0.06-3.21-0.05c-0.08,0-0.08,0.12,0,0.12
						c1.07,0.02,2.14,0.05,3.21,0.08C68.42,134.11,68.42,133.96,68.33,133.96z"/>
					<path id="XMLID_3291_" class="st22" d="M68.04,134.34c-0.95-0.01-1.9,0.01-2.85,0.02c-0.08,0-0.08,0.12,0,0.12
						c0.95,0.01,1.9,0.03,2.85,0.02C68.14,134.49,68.14,134.34,68.04,134.34z"/>
				</g>
				<path class="st16" d="M64.11,133.81c0.18,0.02,0.35,0.03,0.53,0c0.14-0.03,0.28-0.08,0.4-0.17c0.19-0.13,0.33-0.35,0.34-0.58
					c0.01-0.23-0.14-0.47-0.36-0.53c-0.1-0.03-0.21-0.02-0.31,0c-0.47,0.08-0.9,0.35-1.37,0.38c-0.17,0.01-0.37,0-0.5,0.12
					c-0.07,0.07-0.1,0.16-0.12,0.26c-0.02,0.1-0.02,0.22,0.03,0.31c0.1,0.18,0.38,0.12,0.55,0.13
					C63.58,133.76,63.85,133.79,64.11,133.81z"/>
				<path class="st16" d="M61,125.62c-0.78,0.59-1.42,1.35-2.03,2.12c-0.57,0.71-1.12,1.46-1.4,2.32c-0.28,0.87-0.23,1.89,0.33,2.6
					c0.57,0.72,1.53,0.99,2.43,1.16c0.36,0.07,0.73,0.13,1.09,0.11c0.41-0.03,1.06,0.05,1.44-0.08c0.21-0.07,0.21-0.27,0.37-0.42
					c0.16-0.15,0.19-0.49,0.08-0.67c-0.66-0.04-1.32-0.11-1.97-0.21c-0.54-0.08-1.13-0.2-1.48-0.62c-0.38-0.45-0.35-1.15-0.07-1.67
					c0.28-0.52,0.77-0.89,1.28-1.2c0.51-0.3,1.05-0.55,1.52-0.91c0.8-0.62,4.18-3.06,3.22-4.09C65.05,123.25,61.66,125.12,61,125.62
					z"/>
				<path class="st15" d="M74.65,127.27c0.04-0.24-0.13-0.47-0.28-0.66c-0.34-0.42-0.68-0.84-1.01-1.26
					c-0.16-0.2-0.33-0.4-0.52-0.57c-0.4-0.33-0.91-0.49-1.4-0.63c-0.57-0.17-1.23-0.31-1.71,0.04c-0.33,0.24-0.48,0.66-0.48,1.07
					c0,0.4,0.13,0.8,0.28,1.17c0.21,0.56,0.44,1.15,0.74,1.67c0.25,0.44,0.53,0.4,0.96,0.21C72.33,127.81,73.43,127.42,74.65,127.27
					z"/>
				<path class="st15" d="M61.59,126.78c0.37,0.58,0.82,1.11,1.27,1.63c0.04,0.04,0.08,0.09,0.13,0.09c0.04,0,0.08-0.02,0.11-0.05
					c0.35-0.27,0.59-0.66,0.9-0.99c0.61-0.64,1.49-1.01,1.97-1.76c0.27-0.42,0.39-0.94,0.33-1.44c-0.02-0.17-0.07-0.35-0.18-0.49
					c-0.16-0.19-0.42-0.27-0.67-0.27c-0.35,0-0.69,0.12-1.02,0.25c-0.93,0.36-1.86,0.76-2.76,1.2c-0.22,0.11-0.45,0.22-0.67,0.33
					c-0.29,0.15-0.36,0.15-0.17,0.4C61.1,126.04,61.35,126.39,61.59,126.78z"/>
			</g>
		</g>
		<g>
			<defs>
				<filter id="Adobe_OpacityMaskFilter_2_" filterUnits="userSpaceOnUse" x="80.28" y="161.58" width="11.89" height="1.23">
					<feFlood  style="flood-color:white;flood-opacity:1" result="back"/>
					<feBlend  in="SourceGraphic" in2="back" mode="normal"/>
				</filter>
			</defs>
			<mask maskUnits="userSpaceOnUse" x="80.28" y="161.58" width="11.89" height="1.23" id="SVGID_9_">
				<g class="st23">
					<defs>
						<filter id="Adobe_OpacityMaskFilter_3_" filterUnits="userSpaceOnUse" x="80.28" y="161.58" width="11.89" height="1.23">
							<feFlood  style="flood-color:white;flood-opacity:1" result="back"/>
							<feBlend  in="SourceGraphic" in2="back" mode="normal"/>
						</filter>
					</defs>
					<mask maskUnits="userSpaceOnUse" x="80.28" y="161.58" width="11.89" height="1.23" id="SVGID_9_">
						<g class="st24">
						</g>
					</mask>
					<linearGradient id="SVGID_10_" gradientUnits="userSpaceOnUse" x1="80.276" y1="162.1971" x2="92.1611" y2="162.1971">
						<stop  offset="0" style="stop-color:#4D4D4D"/>
						<stop  offset="1" style="stop-color:#000000"/>
					</linearGradient>
					<path class="st25" d="M89.71,162.81c0.82,0,1.66-0.01,2.44-0.26c0.06-0.19-0.05-0.39-0.21-0.5c-0.16-0.11-0.36-0.14-0.55-0.17
						c-0.66-0.09-1.32-0.11-1.99-0.13c-2.58-0.08-5.17-0.16-7.75-0.17c-0.32,0-1.68,0.09-1.29,0.74c0.26,0.44,1.45,0.29,1.87,0.31
						c1.59,0.08,3.18,0.13,4.78,0.16C87.9,162.8,88.8,162.81,89.71,162.81z"/>
				</g>
			</mask>
			<linearGradient id="SVGID_11_" gradientUnits="userSpaceOnUse" x1="80.276" y1="162.1971" x2="92.1611" y2="162.1971">
				<stop  offset="0" style="stop-color:#020203"/>
				<stop  offset="1" style="stop-color:#020203"/>
			</linearGradient>
			<path class="st26" d="M89.71,162.81c0.82,0,1.66-0.01,2.44-0.26c0.06-0.19-0.05-0.39-0.21-0.5c-0.16-0.11-0.36-0.14-0.55-0.17
				c-0.66-0.09-1.32-0.11-1.99-0.13c-2.58-0.08-5.17-0.16-7.75-0.17c-0.32,0-1.68,0.09-1.29,0.74c0.26,0.44,1.45,0.29,1.87,0.31
				c1.59,0.08,3.18,0.13,4.78,0.16C87.9,162.8,88.8,162.81,89.71,162.81z"/>
			<g>
				<path class="st27" d="M91.81,136.67c0,0,0.14-2.29-4-2.12c-0.08,0-0.16,0.01-0.24,0.01c-0.03,0.02-0.06,0.03-0.09,0.05
					c-0.06,0.15-0.11,0.31-0.15,0.46c-0.01,0.04-0.02,0.11-0.03,0.17c-0.03,0.25-0.02,0.14,0,0c0.01-0.05,0.01-0.11,0.02-0.2
					c-0.01,0.1-0.03,0.2-0.05,0.31c-0.13,0.91-0.1,1.83-0.18,2.75c-0.07,0.78-0.23,1.56-0.4,2.34c0.16-0.01,0.35-0.01,0.45,0.03
					c0.21,0.08,0.31,19.03-0.05,20.21l1.65,0.02C88.75,160.69,91.95,141.23,91.81,136.67z"/>
				<g>
					<path class="st28" d="M87.28,126.03c-0.48-0.07-0.99,0.18-1.23,0.61c-0.15,0.27-0.19,0.59-0.23,0.9
						c-0.14,1.11-0.31,2.21-0.52,3.3c-0.14,0.74-0.16,2.22-1.21,2.29c-0.39,0.03-0.8-0.27-1.18-0.33c-0.63-0.1-1.23-0.14-1.85-0.36
						c-0.49-0.18-0.83-0.44-1.19-0.8c-0.22-0.22-0.53-0.65-0.83-0.73c-0.21-0.06-0.48,0.19-0.35,0.36c-0.27-0.16-0.64,0.1-0.66,0.41
						c-0.02,0.59,1.15,0.93,1.56,1.19c0.64,0.4,1.27,0.82,1.97,1.12c1.1,0.47,2.28,0.73,3.47,0.76c0.21,0,0.43,0,0.61-0.11
						c0.38-0.24,0.59-0.79,0.88-1.12c0.27-0.31,0.41-0.52,0.54-0.93c0.34-1.13,0.64-2.28,0.86-3.44
						C88.13,128.17,88.85,126.26,87.28,126.03z"/>
					<path class="st27" d="M82.45,143.47c0.03,0.73,0.08,1.46,0.12,2.19c0.07,1.09,0.14,2.18,0.22,3.28c0.02,0.35,0.05,0.72,0.27,1
						c0.02,0.03,0.05,0.06,0.08,0.07c0.11,0.04,0.2-0.1,0.24-0.22c0.46-1.37,1.13-2.67,2-3.83c0.22-0.3,0.46-0.59,0.78-0.77
						c0.24-0.14,0.51-0.21,0.78-0.28c0.54-0.14,1.08-0.27,1.62-0.41c0.32-0.08,0.64-0.17,0.89-0.38c0.2-0.17,0.32-0.4,0.45-0.62
						c0.63-1.14,1.27-2.29,1.59-3.56c0.23-0.92,0.29-1.88,0.28-2.83c0-0.09,0-0.19-0.04-0.28c-0.05-0.12-0.15-0.21-0.26-0.29
						c-0.41-0.27-0.92-0.3-1.41-0.32c-1.85-0.08-3.74-0.12-5.55,0.31c-0.56,0.13-1.51,0.27-1.78,0.86
						c-0.33,0.73-0.23,1.85-0.27,2.64C82.42,141.18,82.41,142.33,82.45,143.47z"/>
					<g>
						<path class="st27" d="M86.23,142.21c-1.03-0.14-2.07-0.28-3.1-0.42c-0.05-0.13,0.21,0.01,0.19,0.14
							c-0.54,4.32-0.33,8.71,0.1,13.06c0.19,1.88,0.2,3.76,0,5.62c0.43,0.05,1.16,0.11,1.59,0.16c0.78-5.82,1.26-11.67,2.04-17.49
							c0.04-0.29,0.06-0.63-0.16-0.85C86.72,142.28,86.46,142.24,86.23,142.21z"/>
					</g>
					<path class="st28" d="M84.89,123.13c0.62-0.02,1.25-0.44,1.92-0.58c-0.17-0.54,0.04-1.12,0.09-1.68
						c0.07-0.76-0.14-1.52-0.36-2.26c-0.18-0.59-0.38-1.2-0.8-1.65c-0.08-0.09-0.18-0.17-0.3-0.2c-0.1-0.03-0.21-0.01-0.31,0.01
						c-0.73,0.11-2.76,0.2-2.95,1.02c-0.26,1.12,0.51,2.61,0.94,3.61c0.2,0.47,0.42,0.95,0.77,1.31
						C84.21,123.03,84.55,123.14,84.89,123.13z"/>
					<path class="st29" d="M91.97,139.19l0.01-0.01c0.01-0.01,0.01-0.02,0.02-0.02c0.02-0.02,0.03-0.05,0.05-0.07
						c0.22-0.33,0.41-0.68,0.6-1.03c0.36-4.04-0.1-8.12-1.36-12.08c-0.4-1.25-0.79-2.62-2.28-3.47c-0.08-0.04-0.16-0.09-0.25-0.1
						c-0.12-0.02-0.25,0.01-0.37,0.04c-0.8,0.21-1.61,0.41-2.41,0.62c-0.16,0.04-0.32,0.08-0.48,0.12c-0.17,0.04-0.34,0.07-0.52,0.1
						c-0.3,0.04-1.47,0.32-1.51,0.6c-0.1,0.72-0.2,1.44-0.28,2.17c-0.21,1.79-0.36,3.57-0.35,5.36c0.01,1.79-0.16,3.57-0.45,5.34
						c-0.02,0.14-0.13,0.86-0.26,1.6c0.01,0.01,0.01,0.03,0.02,0.04c0.1,0.19,0.22,0.39,0.34,0.57c0.01,0.02,0.03,0.05,0.06,0.08
						c0.01,0.01,0.02,0.03,0.03,0.03c0.14,0.16,0.29,0.31,0.45,0.45c0.01,0.01,0.03,0.03,0.06,0.05c-0.22-0.21,0.01,0,0.08,0.05
						c0.16,0.11,0.34,0.21,0.51,0.3c0.04,0.02,0.22,0.1,0.24,0.11c0.02,0.01,0.04,0.01,0.06,0.02c2.52-0.11,5.03-0.28,7.53-0.53
						C91.63,139.4,91.8,139.28,91.97,139.19z"/>
					<path class="st27" d="M83.53,160.46c-0.03,0-0.05,0-0.07,0.01c-0.03,0.01-0.05,0.03-0.07,0.05c-0.09,0.09-0.16,0.19-0.19,0.3
						c-0.03,0.1-0.04,0.2-0.12,0.29c-0.08,0.1-0.23,0.16-0.38,0.2c-0.38,0.12-0.79,0.21-1.21,0.25c-0.09,0.01-0.19,0.02-0.27,0.04
						c-0.24,0.08-0.3,0.29-0.33,0.47c-0.01,0.05-0.01,0.12,0.05,0.15c0.03,0.02,0.08,0.02,0.12,0.02c1.19,0,1.7,0,2.9-0.01
						c0.29,0,0.59-0.01,0.87-0.06c0.04-0.01,0.08-0.01,0.11-0.03c0.03-0.02,0.04-0.05,0.06-0.08c0.16-0.41,0.18-0.86,0.14-1.28
						c-0.01-0.13-0.03-0.24-0.24-0.27c-0.3-0.04,0.03-0.01-0.27-0.02C84.25,160.47,83.89,160.47,83.53,160.46z"/>
					<path class="st30" d="M88.69,118.91c0-0.37-0.21-0.7-0.39-1.02c-0.3-0.53-0.54-1.11-0.9-1.6c-0.37-0.49-0.91-0.9-1.52-0.92
						c-0.26-0.01-0.51,0.05-0.75,0.11c-1.06,0.25-2.13,0.51-3.09,1.02c-0.12,0.06-0.24,0.13-0.32,0.25
						c-0.07,0.1-0.09,0.22-0.11,0.34c-0.03,0.17-0.06,0.34-0.09,0.5c-0.02,0.11-0.04,0.21-0.02,0.32c0.06,0.32,0.44,0.46,0.77,0.48
						c0.32,0.02,0.65-0.03,0.97-0.07c0.31-0.04,1.03-0.3,1.28-0.02c0.12,0.14,0.09,0.37,0.17,0.53c0.1,0.2,0.3,0.32,0.42,0.5
						c0.13,0.16,0.23,0.4,0.13,0.59c0.18-0.11,0.4-0.14,0.61-0.09c0.07,0.02,0.14,0.05,0.19,0.1c0.09,0.11,0.05,0.28-0.05,0.39
						c-0.1,0.1-0.24,0.15-0.37,0.19c0.58,0.56,0.79,1.47,0.52,2.23c0.45-0.04,0.82-0.36,1.12-0.68c0.28-0.29,0.53-0.61,0.71-0.98
						c0.08-0.17,0.14-0.35,0.21-0.52c0.13-0.35,0.25-0.7,0.38-1.06C88.62,119.31,88.69,119.11,88.69,118.91z"/>
				</g>
				<path class="st27" d="M87.24,160.5c-0.03,0-0.05,0-0.07,0.01c-0.03,0.01-0.05,0.03-0.07,0.05c-0.09,0.09-0.16,0.19-0.19,0.3
					c-0.03,0.1-0.04,0.2-0.12,0.29c-0.08,0.1-0.23,0.16-0.38,0.2c-0.38,0.12-0.79,0.21-1.21,0.25c-0.09,0.01-0.19,0.02-0.27,0.04
					c-0.24,0.08-0.3,0.29-0.33,0.47c-0.01,0.05-0.01,0.12,0.05,0.15c0.03,0.02,0.08,0.02,0.12,0.02c1.19,0,1.7,0,2.9-0.01
					c0.29,0,0.59-0.01,0.87-0.06c0.04-0.01,0.08-0.01,0.11-0.03c0.03-0.02,0.04-0.05,0.06-0.08c0.16-0.41,0.18-0.86,0.14-1.28
					c-0.01-0.13-0.03-0.24-0.24-0.27c-0.3-0.04,0.03-0.01-0.27-0.02C87.96,160.51,87.6,160.5,87.24,160.5z"/>
				<g>
					<g>
						<g>
							<g>
								<path class="st31" d="M78.93,132.03c-0.12,0.25-0.26,0.49-0.42,0.72c-0.02,0.03-0.05,0.07-0.08,0.08
									c-0.04,0.01-0.08-0.01-0.12-0.03c-0.41-0.2-0.82-0.41-1.24-0.61c0.1-0.97,0.04-2.15,0.32-3.08
									c0.04-0.13,2.07,0.22,2.21,0.59c0.13,0.37-0.24,1.25-0.37,1.6C79.15,131.56,79.05,131.8,78.93,132.03z"/>
							</g>
						</g>
						<path class="st32" d="M77.26,129.22c0.06,0.01,0.12,0.02,0.18,0.02c0.13,0.01,0.25,0.04,0.38,0.06
							c0.61,0.14,1.2,0.34,1.79,0.57c0.04,0.01,0.08,0.03,0.12,0.02c0.06-0.01,0.11-0.07,0.13-0.13c0.02-0.06,0.01-0.13,0-0.19
							c0-0.01,0-0.03-0.01-0.04c-0.01-0.01-0.02-0.01-0.03-0.02c-0.03-0.01-0.06-0.02-0.09-0.04c-0.14-0.05-0.28-0.09-0.42-0.13
							c-0.61-0.17-1.22-0.33-1.84-0.47c-0.03-0.01-0.07-0.01-0.09,0c-0.05,0.03-0.07,0.12-0.09,0.17
							C77.26,129.11,77.2,129.21,77.26,129.22z"/>
					</g>
					<polygon class="st33" points="77.23,130.96 79.06,131.76 79.43,130.79 77.23,129.9 					"/>
				</g>
				<g>
					<path class="st30" d="M84.09,120.02c-0.01-0.04-0.06-0.08-0.1-0.07c-0.46,0.05-0.9,0.15-1.35,0.26
						c-0.15,0.04-0.09,0.26,0.06,0.22c0.4-0.1,0.8-0.18,1.2-0.27c0.05,0.21,0.1,0.41,0.12,0.63c0.01,0.09,0.02,0.19,0.02,0.28
						c0,0.17-0.25,0.18-0.36,0.21c-0.13,0.03-0.27,0.03-0.41,0.04c-0.2,0.01-0.21-0.08-0.29-0.21c-0.12-0.2-0.21-0.41-0.29-0.62
						c-0.02-0.07-0.13-0.04-0.11,0.03c0.09,0.31,0.2,0.62,0.38,0.89c0.12,0.2,0.58,0.08,0.77,0.05c0.21-0.03,0.48-0.08,0.5-0.32
						C84.28,120.78,84.18,120.38,84.09,120.02z"/>
					<path class="st30" d="M85.18,119.62c-0.39,0.15-0.77,0.37-1.14,0.56c-0.07,0.04-0.02,0.15,0.05,0.13
						c0.4-0.13,0.83-0.24,1.2-0.42C85.45,119.83,85.34,119.56,85.18,119.62z"/>
				</g>
				<path class="st28" d="M88.58,126.06c-0.15-0.59-0.79-1.82-1.47-0.93c-0.21,0.27-0.25,0.63-0.3,0.96
					c-0.33,2.72-0.66,5.43-0.99,8.15c-0.17,1.42-0.36,2.88-1.09,4.1c-0.12,0.2-0.25,0.39-0.31,0.61c-0.06,0.22-0.02,0.48,0.15,0.63
					c-0.24,0.3-0.04,0.95,0.4,0.91c0.09-0.01,0.18-0.05,0.26-0.1c0.44-0.3,0.33-0.87,0.43-1.34c0.14-0.64,0.33-1.26,0.53-1.88
					c0.75-2.39,1.69-4.73,2.2-7.18C88.65,128.7,88.91,127.34,88.58,126.06z"/>
				<path class="st34" d="M86.87,124.59c-0.17,0.04-0.34,0.08-0.47,0.2c-0.17,0.15-0.22,0.38-0.27,0.6
					c-0.51,2.46-0.9,4.94-1.17,7.44c0.85,0.21,1.69,0.43,2.54,0.64c1.08-2.34,1.56-4.95,1.39-7.51c-0.03-0.46-0.11-0.96-0.46-1.25
					C88,124.37,87.39,124.47,86.87,124.59z"/>
			</g>
		</g>
		<g>
			<defs>
				<filter id="Adobe_OpacityMaskFilter_4_" filterUnits="userSpaceOnUse" x="44.63" y="161.36" width="11.4" height="1.21">
					<feFlood  style="flood-color:white;flood-opacity:1" result="back"/>
					<feBlend  in="SourceGraphic" in2="back" mode="normal"/>
				</filter>
			</defs>
			<mask maskUnits="userSpaceOnUse" x="44.63" y="161.36" width="11.4" height="1.21" id="SVGID_12_">
				<g class="st35">
					<defs>
						<filter id="Adobe_OpacityMaskFilter_5_" filterUnits="userSpaceOnUse" x="44.63" y="161.36" width="11.4" height="1.21">
							<feFlood  style="flood-color:white;flood-opacity:1" result="back"/>
							<feBlend  in="SourceGraphic" in2="back" mode="normal"/>
						</filter>
					</defs>
					<mask maskUnits="userSpaceOnUse" x="44.63" y="161.36" width="11.4" height="1.21" id="SVGID_12_">
						<g class="st36">
						</g>
					</mask>
					<linearGradient id="SVGID_13_" gradientUnits="userSpaceOnUse" x1="44.6298" y1="161.9696" x2="56.0259" y2="161.9696">
						<stop  offset="0" style="stop-color:#4D4D4D"/>
						<stop  offset="1" style="stop-color:#000000"/>
					</linearGradient>
					<path class="st37" d="M51.9,162.45c0.86-0.03,1.72-0.05,2.57-0.12c0.41-0.03,0.84-0.07,1.21-0.25c0.2-0.1,0.41-0.31,0.32-0.52
						c-0.08-0.17-0.31-0.2-0.5-0.2c-3.1,0-6.19-0.01-9.28,0.2c-0.56,0.04-1.19,0.12-1.51,0.58c-0.39,0.57,0.78,0.41,1.02,0.41
						c0.68,0.01,1.36,0.01,2.03,0C49.14,162.54,50.52,162.5,51.9,162.45z"/>
				</g>
			</mask>
			<linearGradient id="SVGID_14_" gradientUnits="userSpaceOnUse" x1="44.6298" y1="161.9696" x2="56.0259" y2="161.9696">
				<stop  offset="0" style="stop-color:#020203"/>
				<stop  offset="1" style="stop-color:#020203"/>
			</linearGradient>
			<path class="st38" d="M51.9,162.45c0.86-0.03,1.72-0.05,2.57-0.12c0.41-0.03,0.84-0.07,1.21-0.25c0.2-0.1,0.41-0.31,0.32-0.52
				c-0.08-0.17-0.31-0.2-0.5-0.2c-3.1,0-6.19-0.01-9.28,0.2c-0.56,0.04-1.19,0.12-1.51,0.58c-0.39,0.57,0.78,0.41,1.02,0.41
				c0.68,0.01,1.36,0.01,2.03,0C49.14,162.54,50.52,162.5,51.9,162.45z"/>
			<g>
				<g>
					<path class="st39" d="M58.16,131.69c0.08,0.07,0.16,0.14,0.27,0.17c0.14,0.04,0.29-0.01,0.43-0.06
						c0.09-0.03,0.18-0.06,0.28-0.09c0.04-0.01,0.07-0.03,0.09-0.06c0.02-0.03,0.02-0.07,0.01-0.11c-0.09-0.86-0.25-1.72-0.49-2.55
						c-0.38,0.17-0.76,0.35-1.13,0.52c-0.2,0.09-0.89,0.28-0.91,0.53c-0.01,0.25,0.47,0.66,0.63,0.83
						C57.6,131.16,57.87,131.43,58.16,131.69z"/>
					<path class="st30" d="M58.34,128.83c0.11-0.05,0.23-0.09,0.35-0.08c0.12,0.02,0.24,0.12,0.22,0.24
						c-0.01,0.09-0.46,0.29-0.55,0.34c-0.2,0.11-0.4,0.22-0.6,0.33c-0.2,0.1-0.41,0.2-0.62,0.29c-0.12,0.05-0.37,0.21-0.5,0.16
						c-0.5-0.17,0.37-0.65,0.52-0.74C57.54,129.16,57.94,129,58.34,128.83z"/>
				</g>
				<g>
					<path class="st40" d="M53.94,160.98c-0.18,0.01-0.37,0.03-0.55-0.02c-0.18-0.05-0.35-0.17-0.41-0.34
						c-0.05-0.15-0.02-0.35-0.16-0.43c-0.03-0.02-0.06-0.03-0.1-0.04c-0.02-3.13,0.06-4.94,0.04-8.12c0.16-1.06,0.06-2.05,0.04-3.08
						c-0.08-3.25-0.15-6.5-0.23-9.74c-0.01-0.43-0.02-0.88-0.24-1.28c-0.34-0.65-1.11-1.02-1.83-1.3c-2.14-0.83-4.57-2.03-5.16,0.66
						c-0.16,0.71-0.29,1.43-0.39,2.15c-0.08,0.52-0.14,1.05,0.05,1.57c0.32,0.87,0.91,3.01,1.67,3.64c1.96,1.65,2.81,3.51,3.46,5.69
						c-0.2,0.73,0.04,1.76,0.12,2.33c0.42,2.7,1.28,5.22,1.7,7.92c-0.18,0.33-0.25,0.72-0.2,1.1c0.01,0.08,0.03,0.15,0.08,0.21
						c0.07,0.08,0.19,0.1,0.3,0.1c0.3,0.02,0.6,0.03,0.91,0.02c0.23,0,0.49-0.03,0.66-0.18C53.93,161.64,53.94,161.29,53.94,160.98z
						"/>
					<path class="st40" d="M51.38,142.5c-0.6-1.33-2.8-2.22-4.88-0.71c-1.24,0.9-0.3,1.91-0.02,2.81c0.33,1.09,0.55,2.21,0.66,3.35
						c0.2,2.2-0.03,4.48-0.68,6.76c-0.44,1.52-0.45,3.18-0.75,4.7c-0.17,0.85-0.69,1.98-0.57,2.82c0.47,0,0.94,0.01,1.41,0.01
						c0.41,0,0.85,0,1.2-0.23c0.35-0.23,0.52-0.77,0.23-1.06c-0.29,0.09-0.59,0.19-0.88,0.12c-1.29-0.31,0.4-3.23,0.64-3.88
						c1.06-2.75,2.11-5.5,2.87-8.25C51.16,146.95,52.21,144.32,51.38,142.5z"/>
					<path class="st41" d="M51.78,127.85c0.51,1.26,1.02,2.51,1.54,3.77c0.14,0.34,0.28,0.71,0.22,1.08
						c-0.12,0.64-0.82,0.99-1.46,1.13c-1.26-1.79-2.59-3.53-3.97-5.22c-0.79-0.96-2.02-3.18-0.21-3.85
						C49.95,124.01,51.17,126.35,51.78,127.85z"/>
					<path class="st41" d="M56.39,125.94c0.17-0.25,0.41-0.13,0.62,0.08c-0.58,2.12-1.1,4.25-1.56,6.4
						c-0.14,0.67-0.32,1.4-0.89,1.78c-0.24,0.16-0.53,0.24-0.82,0.29c-0.52,0.09-1.14,0.04-1.43-0.39c-0.42-0.62,0.1-1.23,0.51-1.66
						c0.48-0.51,0.69-0.84,0.98-1.53C54.49,129.3,55.43,127.39,56.39,125.94z"/>
					<path class="st16" d="M57.37,125.84c0.05-0.06,0.07-0.13,0.1-0.2c0.07-0.18,0.15-0.37,0.22-0.55c0.03-0.08,0.07-0.17,0.07-0.26
						c0.01-0.09-0.02-0.19-0.09-0.25c-0.06-0.05-0.16-0.07-0.24-0.05s-0.16,0.06-0.22,0.11c-0.15,0.11-0.27,0.27-0.36,0.44
						c-0.07,0.14-0.11,0.29-0.22,0.39c-0.05,0.05-0.1,0.09-0.15,0.14c-0.06,0.08-0.08,0.2-0.04,0.29
						C56.59,126.2,57.21,126.05,57.37,125.84z"/>
					<path class="st42" d="M54.03,142.94c-0.21-4.57-0.69-9.12-1.31-13.66c-0.23-1.66-0.5-3.64-2.24-4.42
						c-1.61-0.72-3.6-0.91-4.65,0.72c-0.59,0.91-0.72,2.01-0.84,3.08c-0.74,6.53-1.48,13.05-2.23,19.58
						c0.82,0.05,10.57,1.49,10.62,0.88c0-0.01,0-0.02,0-0.02c0.06,0,0.12-0.02,0.18-0.04c0.22-0.1,0.28-0.36,0.32-0.59
						C54.16,146.65,54.12,144.79,54.03,142.94z"/>
					<g>
						<path class="st16" d="M57.04,130.98c0.02-0.05,0.04-0.1,0.07-0.14c0.06-0.09,0.18-0.13,0.28-0.14c0.11-0.01,0.22,0,0.32-0.02
							c0.33-0.06,0.6-0.39,0.94-0.34c0.1,0.02,0.2,0.07,0.28,0.13c0.11,0.08,0.21,0.19,0.24,0.32c0.04,0.21-0.1,0.41-0.24,0.57
							c-0.08,0.09-0.16,0.18-0.26,0.24c-0.09,0.05-0.18,0.06-0.28,0.09c-0.24,0.05-0.47,0.14-0.66,0.3
							c-0.15,0.13-0.28,0.32-0.48,0.36c-0.35,0.09-0.68-0.3-0.72-0.62C56.5,131.41,56.92,131.25,57.04,130.98z"/>
						<path class="st41" d="M57.28,132.1c-0.15-0.31-0.31-0.62-0.46-0.92c-0.48,0.08-0.85,0.46-1.19,0.81
							c-0.48,0.47-1,0.91-1.55,1.3c-0.32,0.23-0.7,0.45-1.09,0.39c-0.48-0.07-0.79-0.54-1.03-0.96c-0.92-1.58-1.84-3.15-2.76-4.73
							c-0.73-1.25-1.55-0.79-2.07,0.33c-0.48,1.02,0.14,2.17,0.61,3.09c0.61,1.19,1.28,2.35,2.01,3.47
							c0.43,0.66,0.95,1.35,1.71,1.53c0.37,0.09,0.76,0.04,1.12-0.07c1.17-0.33,2.11-1.21,2.97-2.07c0.56-0.56,1.11-1.13,1.66-1.71
							c0.06-0.06,0.12-0.13,0.14-0.22C57.35,132.26,57.31,132.18,57.28,132.1z"/>
					</g>
					<path class="st16" d="M52.05,118.58c-0.19-0.57-0.49-1.28-1.11-1.42c-0.67-0.16-1.62,0.28-2.1,0.71
						c-0.6,0.52-0.98,1.27-1.19,2.04c-0.23,0.84-0.27,1.77,0.11,2.55c0.38,0.78,1.23,1.37,2.09,1.24c0.57-0.09,1.07-0.46,1.44-0.91
						C52.25,121.65,52.52,119.99,52.05,118.58z"/>
					<path class="st32" d="M49.16,120.73c-0.19-0.34-0.77-0.32-0.94,0.02c-0.13,0.26,0.33,1.3,0.4,1.62
						c0.18,0.85-0.73,6.65-0.5,7.49c-1.37,0.03-2.75-0.12-4.06-0.54c-0.13-0.04-0.27-0.09-0.36-0.2c-0.12-0.14-0.12-0.35-0.12-0.53
						c0.1-2.75,2.64-12.11,6.05-12.02c0.42,0.01,0.83,0.1,1.24,0.2c0.27,0.07,0.54,0.14,0.78,0.27c0.5,0.28,0.8,0.83,0.93,1.39
						c0.13,0.56,0.1,1.14,0.06,1.71c-0.01,0.18-2.05,0-2.25-0.03c-0.22-0.03-0.63-0.21-0.86-0.12
						C49.28,120.09,49.25,120.5,49.16,120.73z"/>
					<path class="st43" d="M46.19,138.72c-0.59-0.11-1.13-0.4-1.65-0.69c0.08-0.26,0.17-0.51,0.25-0.77
						c2.41,0.87,5.14,0.79,7.5-0.21c0.04,0.41,0.07,0.81,0.11,1.22c-0.64,0.14-1.29,0.19-1.94,0.24c-0.89,0.07-1.77,0.15-2.66,0.22
						C47.26,138.77,46.72,138.82,46.19,138.72z"/>
				</g>
			</g>
		</g>
	</g>
</g>
</svg>
