<?xml version="1.0" encoding="utf-8"?>
<!-- Generator: Adobe Illustrator 25.1.0, SVG Export Plug-In . SVG Version: 6.00 Build 0)  -->
<svg version="1.1" id="Calque_1" xmlns="http://www.w3.org/2000/svg" xmlns:xlink="http://www.w3.org/1999/xlink" x="0px" y="0px"
	 viewBox="0 0 400 121" style="enable-background:new 0 0 400 121;" xml:space="preserve">
<style type="text/css">
	.st0{fill:#1E1E1C;}
	.st1{font-family:'Broadway';}
	.st2{font-size:29.9684px;}
	.st3{fill:#DF8C1F;}
	.st4{fill:#1D1E1C;}
	.st5{fill:#98C452;}
	.st6{fill:#BACF39;}
	.st7{fill:#7BBC6E;}
	.st8{fill:#D8DB33;}
	.st9{fill:#5DB78E;}
	.st10{fill:#B9CF3E;}
	.st11{fill:#91C259;}
	.st12{fill:#6FB971;}
	.st13{fill:#52B38F;}
	.st14{fill:#F7B813;}
	.st15{fill:#F2900D;}
	.st16{fill:#EC6F15;}
	.st17{fill:#E74A1E;}
	.st18{fill:url(#SVGID_1_);}
	.st19{fill:url(#SVGID_2_);}
	.st20{fill:url(#SVGID_3_);}
	.st21{fill:url(#SVGID_4_);}
	.st22{fill:url(#SVGID_5_);}
	.st23{fill:url(#SVGID_6_);}
	.st24{fill:url(#SVGID_7_);}
</style>
<text transform="matrix(1 0 0 1 13.52 107.6973)" class="st0 st1 st2">Les voisins de Beausleil</text>
<g>
	<g>
		<path class="st3" d="M175.46,35.57l-29.33,12.97v27.13h58.65V48.54L175.46,35.57z M184.91,65.07h-18.89V53.9l9.45-4.17l9.45,4.17
			V65.07z"/>
		<polygon points="138.53,75.67 138.53,44.55 175.46,28.22 212.39,44.55 212.39,75.67 218.35,75.67 218.35,40.67 175.46,21.71 
			132.58,40.67 132.58,75.67 		"/>
		<polygon class="st4" points="211.71,18.23 211.71,34.03 189.88,24.38 189.88,18.23 		"/>
		<rect x="187.42" y="11" class="st4" width="27.39" height="5.33"/>
	</g>
	<g>
		<path class="st5" d="M295.54,36.56c1.11-1.21,2.54-1.87,4.08-2.35c2.98,2,6.33,3.37,9.39,5.23c1.09,0.67,2.39,1.15,2.67,2.64
			c-1.21,0.99-2.61,1.29-4.13,1.13c-4.27-0.03-7.44-2.66-10.9-4.58C295.95,38.24,295.15,37.65,295.54,36.56z"/>
		<path class="st6" d="M311.69,42.08c-3.13-2.01-6.35-3.88-9.79-5.33c-1.21-0.51-2.07-1.2-2.27-2.55c1.06-0.65,2.2-1.05,3.47-1.05
			c3.91,1.38,7.64,3.09,10.96,5.6C313.84,40.27,313.11,41.42,311.69,42.08z"/>
		<path class="st7" d="M295.54,36.56c3.54,3.05,7.8,4.82,12.02,6.65c-3.53,0.33-7.04,0.16-10.53-0.44c-1.53-1.13-3.63-1.5-4.63-3.36
			C293.18,38.18,294.15,37.15,295.54,36.56z"/>
		<path class="st8" d="M314.05,38.76c-3.97-1.25-7.67-3.03-10.96-5.6c2.76-0.7,5.47-0.61,8.02,0.69
			C313.09,34.85,314.55,36.26,314.05,38.76z"/>
		<path class="st9" d="M292.4,39.42c1.92,0.61,3.58,1.57,4.63,3.36c-2.6,0.17-5.19,0.47-8.02,1.73
			C289.83,42.22,290.82,40.63,292.4,39.42z"/>
	</g>
	<g>
		<path class="st10" d="M286.94,25.41c1.25-1.34,2.88-1.98,4.61-2.33c3.78-0.78,5.49,1.29,4.21,5.01c-2.54,0.61-4.91-0.34-7.31-0.88
			C287.63,27.02,286.84,26.51,286.94,25.41z"/>
		<path class="st11" d="M286.94,25.41c2.56,2.12,6.11,1.04,8.82,2.68c-0.6,1.03-1.43,1.75-2.63,1.98c-3.19,0.74-6.25,0.66-8.97-1.45
			C284.6,27.13,285.67,26.18,286.94,25.41z"/>
		<path class="st12" d="M284.16,28.62c2.99,0.48,5.98,0.96,8.97,1.45c-1.6,1.21-3.51,1.6-5.39,2.08c-1.65-0.25-3.5,0.13-4.71-1.49
			C283.18,29.86,283.52,29.16,284.16,28.62z"/>
		<path class="st13" d="M283.02,30.66c1.64,0.28,3.37,0.27,4.71,1.49c-1.86,1.13-4.02,1.75-5.78,3.89
			C281.54,33.67,282.28,32.16,283.02,30.66z"/>
	</g>
	<g>
		<path class="st14" d="M267.71,42.37c0.37-0.55,0.75-1.09,1.12-1.64c1.25-0.65,2.46-1.4,3.76-1.92c1.41-0.57,2.92-0.46,3.89,0.82
			c0.93,1.23,1.03,2.63-0.34,3.77C273.32,43.2,270.44,43.4,267.71,42.37z"/>
		<path class="st15" d="M267.71,42.37c2.92-0.55,5.77-0.54,8.43,1.03c-0.47,1.05-1.33,1.67-2.35,2.11c-2.56,0.34-5.09,0.35-7.49-0.8
			C266.77,43.92,267.24,43.15,267.71,42.37z"/>
		<path class="st16" d="M266.3,44.7c2.61-0.8,5.06-0.09,7.49,0.8c-1.06,1.07-2.31,1.86-3.71,2.42c-1.69-0.42-2.82,0.95-4.28,1.29
			C266.16,47.73,265.16,46.1,266.3,44.7z"/>
		<path class="st17" d="M265.81,49.21c0.89-2.18,2.11-3.26,4.28-1.29c-1.61,0.85-2.09,3.16-4.28,3.27
			C266.27,50.54,265.17,49.87,265.81,49.21z"/>
	</g>
	<linearGradient id="SVGID_1_" gradientUnits="userSpaceOnUse" x1="68.8745" y1="64.3476" x2="261.8698" y2="64.3476">
		<stop  offset="0" style="stop-color:#2FB4E4"/>
		<stop  offset="0.2933" style="stop-color:#96C569"/>
		<stop  offset="0.5726" style="stop-color:#EC7C40"/>
		<stop  offset="1" style="stop-color:#E12D1D"/>
	</linearGradient>
	<path class="st18" d="M68.87,70.62c8.4-1.98,18.38-2.23,28.82-1.68c15.26,0.79,28.8,2.83,43.18,4.27
		c31.93,3.19,64.75-0.28,79.63-8.35c4.65-2.52,5.09-5.07,2.63-7.72c-1.87-2.01,3.42-5.68,3.42-5.68l10.64-2.11l14.81,1.42l4.15,1.39
		c0,0,5.37,3.13,5.64,4.95c0.35,2.35-0.73,4.66-3.22,6.92c-4,2.36-8.53,4.62-15.04,6.6c-13.98,4.25-32.03,6.71-52.1,8.3
		c-12.28,0.6-24.5,0.58-36.64-0.24c-9.32-0.98-18.35-2.11-26.86-3.52c-9.32-1.54-18.47-3.16-28.61-4.34
		c-8.23-0.95-16.59-1.23-25.27-0.43C72.43,70.56,70.61,70.56,68.87,70.62z"/>
	<linearGradient id="SVGID_2_" gradientUnits="userSpaceOnUse" x1="215.4755" y1="67.5337" x2="330.8085" y2="67.5337">
		<stop  offset="0" style="stop-color:#2FB4E4"/>
		<stop  offset="0.2933" style="stop-color:#96C569"/>
		<stop  offset="0.5726" style="stop-color:#EC7C40"/>
		<stop  offset="1" style="stop-color:#E12D1D"/>
	</linearGradient>
	<path class="st19" d="M260.9,64.32c3.84-1.97,7.91-3.87,13.23-5.47c11.29-3.39,30.85-4.08,43.99-1.51
		c15.66,3.06,17.15,10.61,2.61,14.51c-7.75,2.08-16.59,3.28-26.95,2.45c-7.33-0.59-12.35-2.54-12.35-4.72
		c0-2.28,4.66-3.95,12.64-4.54c1.86-0.14,3.78-0.22,5.54-0.45c2.75-0.35,5.33-0.87,5.24-1.97c-0.09-1.18-2.91-1.68-5.92-1.94
		c-3.77-0.33-7.58-0.23-11.22,0.26c-8.62,1.14-15.48,3.02-20.85,5.48c-4.14,1.9-8.07,3.85-12.33,5.72
		c-9.63,4.22-22.73,6.48-38.57,7.16c-0.64-0.35-0.91-0.54,0.83-0.71c4.37-0.43,8.51-1.06,12.57-1.75
		C245.34,74.11,254.08,69.48,260.9,64.32z"/>
	<linearGradient id="SVGID_3_" gradientUnits="userSpaceOnUse" x1="282.6552" y1="51.6826" x2="320.5025" y2="51.6826">
		<stop  offset="0" style="stop-color:#2FB4E4"/>
		<stop  offset="0.2933" style="stop-color:#96C569"/>
		<stop  offset="0.5726" style="stop-color:#EC7C40"/>
		<stop  offset="1" style="stop-color:#E12D1D"/>
	</linearGradient>
	<path class="st20" d="M282.66,53.27c0.85-1.34,3.92-1.62,6.07-2.13c6.99-1.65,14.75-2.37,23.4-1.71c2.22,0.17,4.23,0.48,5.9,0.97
		c2.35,0.69,3.12,1.55,1.92,2.53c-1.25,1.03-3.85,1.31-6.96,1.24c-0.79-0.02-1.6-0.06-2.33-0.16
		C301.72,52.9,292.75,51.89,282.66,53.27z"/>
	<linearGradient id="SVGID_4_" gradientUnits="userSpaceOnUse" x1="101.0119" y1="74.7664" x2="175.8868" y2="74.7664">
		<stop  offset="0" style="stop-color:#2FB4E4"/>
		<stop  offset="0.2933" style="stop-color:#96C569"/>
		<stop  offset="0.5726" style="stop-color:#EC7C40"/>
		<stop  offset="1" style="stop-color:#E12D1D"/>
	</linearGradient>
	<path class="st21" d="M106.78,70.9c1.39-0.07,2.86-0.06,4.16-0.21c6.98-0.8,13.71-0.52,20.33,0.43c8.16,1.17,15.52,2.79,23.01,4.34
		c6.84,1.41,14.11,2.54,21.6,3.52c-3.06,0.6-5.71,0.38-8.05-0.44c-4.69-0.49-9.14-1.15-13.49-1.92c-9.62-1.71-18.9-3.62-29.04-5.02
		c-5.36-0.74-10.74-0.93-16.08,0c-0.84,0.14-2.56,0.18-1.85,0.69c0.41,0.3,1.72,0.16,2.65,0.17c-1.83,0.94-6.85-0.04-7.48,1.59
		C99.81,72.6,100.44,72.2,106.78,70.9z"/>
	<linearGradient id="SVGID_5_" gradientUnits="userSpaceOnUse" x1="107.2163" y1="74.8183" x2="167.8417" y2="74.8183">
		<stop  offset="0" style="stop-color:#2FB4E4"/>
		<stop  offset="0.2933" style="stop-color:#96C569"/>
		<stop  offset="0.5726" style="stop-color:#EC7C40"/>
		<stop  offset="1" style="stop-color:#E12D1D"/>
	</linearGradient>
	<path class="st22" d="M110.03,72.45c-0.93-0.01-2.24,0.13-2.65-0.17c-0.71-0.51,1.02-0.54,1.85-0.69c5.34-0.93,10.72-0.73,16.08,0
		c10.13,1.39,19.41,3.31,29.04,5.02c4.34,0.77,8.8,1.43,13.49,1.92c-0.5,0.04-1,0.09-1.51,0.13c-0.32-0.01-0.64-0.01-0.96-0.02
		c-12.9-1-24.59-2.89-36-5.05C123.51,72.5,117.17,71.58,110.03,72.45z"/>
	<linearGradient id="SVGID_6_" gradientUnits="userSpaceOnUse" x1="205.3577" y1="71.9951" x2="260.8991" y2="71.9951">
		<stop  offset="0" style="stop-color:#2FB4E4"/>
		<stop  offset="0.2933" style="stop-color:#96C569"/>
		<stop  offset="0.5726" style="stop-color:#EC7C40"/>
		<stop  offset="1" style="stop-color:#E12D1D"/>
	</linearGradient>
	<path class="st23" d="M260.9,64.32c-6.82,5.16-15.56,9.79-31.53,12.5c-4.07,0.69-8.21,1.32-12.57,1.75
		c-1.74,0.17-1.47,0.36-0.83,0.71c-3.57,0.49-7.11,0.6-10.61-0.07c16.14-1.6,30.67-4.05,41.91-8.3c5.23-1.98,8.88-4.24,12.1-6.6
		C259.87,64.31,260.39,64.31,260.9,64.32z"/>
	<linearGradient id="SVGID_7_" gradientUnits="userSpaceOnUse" x1="165.3721" y1="78.737" x2="166.3355" y2="78.737">
		<stop  offset="0" style="stop-color:#2FB4E4"/>
		<stop  offset="0.2933" style="stop-color:#96C569"/>
		<stop  offset="0.5726" style="stop-color:#EC7C40"/>
		<stop  offset="1" style="stop-color:#E12D1D"/>
	</linearGradient>
	<path class="st24" d="M165.37,78.65c0.32,0.01,0.64,0.01,0.96,0.02C165.98,78.89,165.66,78.87,165.37,78.65z"/>
</g>
</svg>
